<svg width="491" height="174" viewBox="0 0 491 174" fill="none" xmlns="http://www.w3.org/2000/svg">
<path d="M71.9406 71.1L70.1406 71H68.4406L64.8406 70.8L62.7406 70.2L62.2406 69.1V64.2L62.1406 62.1V58L62.2406 54.4L64.0406 53.2H66.2406L68.6406 53.1L71.6406 52.9L73.4406 52.5L75.7406 50.4L75.8406 47.2L75.5406 45.4L74.4406 41.7L73.2406 37.9L72.6406 35.9L72.0406 34L71.5406 32.1L70.4406 28.3L69.9406 26.4L69.3406 24.3L69.2406 22.3L69.1406 20.5L69.2406 18.7L70.0406 15.1L70.6406 13.3L71.4406 11.7L73.3406 8.89999L76.1406 6.2L80.0406 3.6L84.1406 2.1L90.3406 0.499996H92.1406L94.4406 0.299998L97.2406 0.0999949L99.0406 -3.8147e-06H100.741L102.941 0.499996L103.741 2.8L103.941 4.7V6.59999L103.541 10.7L103.641 12.9L103.841 16.2L102.941 18.2L100.741 18.5L98.3406 18.8L95.3406 19L93.7406 19.6L91.6406 21.2L90.8406 22.9L91.0406 25.8L91.5406 27.7L92.1406 29.7L92.8406 31.6L94.2406 35.3L95.1406 38.1L96.1406 40.9L97.1406 44.7L97.6406 47L98.2406 49.6L98.4406 51.8L98.3406 54L97.5406 58.5L95.8406 62.7L94.5406 64.5L93.1406 66.1L91.5406 67.5L87.8406 69.7L85.8406 70.4L83.6406 70.9L79.3406 71L75.3406 71.4L71.9406 71.1ZM134.449 70.7L132.549 70.4L130.249 70.7L128.149 70.3H125.949L123.749 69.6L123.049 66.9L122.949 64.8L123.049 61.4L123.349 58.7L123.249 56.4L123.149 54.7V53L123.049 51.7L123.249 49.9L123.049 47.5L123.249 45.8L123.049 43.5L123.249 40.5L123.149 38.3L123.449 37V10.8L123.349 7L122.949 4.5L124.349 2.8L127.449 2.6H143.249L146.149 2.7L148.449 2.6H150.849L154.349 2.49999L156.449 2.6H159.749L161.549 2.89999L162.549 3.79999L162.949 6L162.249 8.7L160.649 9.6L159.049 9.3L156.449 9.6L153.649 9.5L150.849 9.6H146.849L146.049 10.3V16.4L145.949 18.2V23.6L145.549 26.7V37.1L147.949 37.8L150.149 37.7H156.849L159.749 38.1L160.949 40.3L161.049 42.2L160.149 44.7L158.749 45.1L157.349 45H146.149L145.649 45.5L145.549 48V63.1L147.449 63.6L149.249 63.7H158.349L161.249 64.6L161.549 67.6V69.9L160.749 70.5L158.749 70.3H157.049L154.349 70.6L152.349 70.7L150.749 70.5L149.349 70.7L147.149 70.6H144.549L143.249 70.7L141.249 70.5L139.449 70.6L137.649 70.8L134.449 70.7ZM185.961 69.3L185.261 66.4V54.7L184.961 52.8L185.261 51.1V49.1L185.361 46.6L185.261 44L185.361 40.9L185.261 37.3V26.7L185.361 24.8V19L185.461 15L185.361 11L185.461 7.8L185.361 5.69999L185.461 3.6L186.161 2.2H188.161L190.961 1.99999L193.061 1.9L195.861 1.99999L199.561 1.8H201.361L203.961 1.9H205.561L206.661 1.99999L207.361 2.49999L207.961 5.19999V17.5L208.261 19.5L208.061 20.3L208.161 21.9L207.961 25.1V51.6L208.161 55.3L208.361 58.6L208.461 61L210.361 61.5H212.261L216.061 61.4H219.961L222.961 61.3L224.661 61.5L225.561 64.2L225.461 67.9L224.461 68.9H222.361L218.761 69H209.361L206.661 69.5L204.461 69.4L201.761 69.2L199.461 69.4L197.661 69.5H192.461L187.861 69.7L185.961 69.3ZM247.229 69.7L245.329 68.8L245.129 66.9V61.5L245.029 59.3L244.729 56.1L244.929 53.8L244.729 50.3L244.829 45.8V42.2L244.729 39.2V36.2L244.629 33.3L244.729 29.9V18.4L244.929 15.1L244.829 12.9L244.729 11.1V9.3L244.829 7.49999L244.929 4.7L246.329 2.49999L247.429 2.1L249.129 2.2L252.529 2.1L254.529 2.2H257.529L259.629 2.3H264.729L266.729 2.1L268.229 2.3L270.329 2.2H277.329L280.929 2.3L283.729 2.49999L285.129 5L284.429 8.4L281.529 9.1L277.729 8.89999L273.929 9.1H270.129L268.329 11.9L268.229 16V17.8L267.929 21.7L267.829 23.6V31.5L267.929 35.1L268.029 37.5L270.429 38.2H278.929L281.729 38.9L282.629 40.3L282.729 42.3L281.829 45.1L278.429 45.8L274.929 45.4L268.529 45.8L267.929 46.2L267.829 48.8V55.1L267.729 57.2V65.4L267.129 68.4L265.429 69.6L263.329 69.8H250.929L247.229 69.7ZM308.329 69.5L307.529 67.8V65.2L307.329 59.4L307.129 56.1V52.2L307.329 49.6V45.5L307.129 43.7L307.429 42.2L307.229 41.1L307.529 39.1V21.9L307.629 19.9V14.6L307.929 13.1V10.8L308.029 8.6L307.929 6.3L307.729 4L308.129 3L309.229 2.3L310.729 2.6L314.229 2.3H316.229L319.229 2.4L320.929 2.3L323.529 2.6L327.229 2.7L329.429 3.9V6.4L329.529 8.89999L329.429 11.5L329.529 14.1L329.429 16.9L329.329 19.9L329.529 23L329.329 25.1L329.429 27.1L329.329 29.9L329.429 33.2L329.329 35.7L329.429 37.8L329.229 41V50.8L329.329 53.9L329.429 56.7L329.329 58.9L329.529 60.1L329.329 62L329.529 64.4L329.329 65.7L329.629 66.8L329.429 68.2L329.129 69.5L326.929 69.9H312.929L309.929 70L308.329 69.5ZM367.164 70.7L365.264 70.4L362.964 70.7L360.864 70.3H358.664L356.464 69.6L355.764 66.9L355.664 64.8L355.764 61.4L356.064 58.7L355.964 56.4L355.864 54.7V53L355.764 51.7L355.964 49.9L355.764 47.5L355.964 45.8L355.764 43.5L355.964 40.5L355.864 38.3L356.164 37V10.8L356.064 7L355.664 4.5L357.064 2.8L360.164 2.6H375.964L378.864 2.7L381.164 2.6H383.564L387.064 2.49999L389.164 2.6H392.464L394.264 2.89999L395.264 3.79999L395.664 6L394.964 8.7L393.364 9.6L391.764 9.3L389.164 9.6L386.364 9.5L383.564 9.6H379.564L378.764 10.3V16.4L378.664 18.2V23.6L378.264 26.7V37.1L380.664 37.8L382.864 37.7H389.564L392.464 38.1L393.664 40.3L393.764 42.2L392.864 44.7L391.464 45.1L390.064 45H378.864L378.364 45.5L378.264 48V63.1L380.164 63.6L381.964 63.7H391.064L393.964 64.6L394.264 67.6V69.9L393.464 70.5L391.464 70.3H389.764L387.064 70.6L385.064 70.7L383.464 70.5L382.064 70.7L379.864 70.6H377.264L375.964 70.7L373.964 70.5L372.164 70.6L370.364 70.8L367.164 70.7ZM6.3 172.2L3.6 172H1.3L0.600001 171.5L0.4 168.9V153.2L0.500001 150.1L0.600001 147.8L0.500001 144.7L0.4 142.7V133.4L1.01328e-06 131.7L0.2 129.4L1.01328e-06 125.8L0.2 122.3L1.01328e-06 118.8V108.1L0.4 105.3L1.2 104.7L3.3 104.4L6.6 104.2L10.7 104L15.1 103.7H17.1L21 104.2L24.9 104.4L26.8 104.7L28.7 105.2L30.6 105.8L32.4 106.7L35.5 108.8L36.9 109.9L38.1 111.1L40.4 114.6L41.9 118.6L42.3 120.3L42.8 124L42.7 125.8L42.2 129.4L41.6 131L40.2 134.9L38 138.8L36.7 140.4L35.3 142L33.7 143.4L31.1 145.1L30.2 145.8L30.7 146.4L31.8 147.1L33.7 148.5L34.9 149.8L36.8 152.8L37.4 154.6L37.6 157.9L37.4 161.4L36.9 163.1L36.1 164.8L33.4 168.2L29.9 170.8L26.8 171.7L24.4 171.9L22 172.3H9.2L6.3 172.2ZM23.3 165.8L25.7 165.6L28.3 164.4L30.8 161.5L31.3 159.6L31.4 157.7L30.5 153.9L29.3 152.4L26.2 150.8L23.1 150.6L21.5 152.7L21.4 154.7L21.6 158L21.2 159.9L21.3 162.3L21.5 164L21.7 165.9L23.3 165.8ZM27.1 138.3L30.4 136L33.1 132.7L34 131.1L34.6 129.3L35.3 125.2L35.2 122.9L33.9 118.8L32.9 117L31.7 115.4L29.6 113.4L27.6 112.2L26 111.4L23.8 111L21.5 110.8L20.7 111.2L20.6 113.7V118L20.7 122.1V125.8L20.8 127.7L21.1 130L20.9 131.1L21 132.9V135.2L21.1 137.5L21.2 139.2L23.5 139.7L27.1 138.3ZM76.9297 172.7L75.0297 172.4L72.7297 172.7L70.6297 172.3H68.4297L66.2297 171.6L65.5297 168.9L65.4297 166.8L65.5297 163.4L65.8297 160.7L65.7297 158.4L65.6297 156.7V155L65.5297 153.7L65.7297 151.9L65.5297 149.5L65.7297 147.8L65.5297 145.5L65.7297 142.5L65.6297 140.3L65.9297 139V112.8L65.8297 109L65.4297 106.5L66.8297 104.8L69.9297 104.6H85.7297L88.6297 104.7L90.9297 104.6H93.3297L96.8297 104.5L98.9297 104.6H102.23L104.03 104.9L105.03 105.8L105.43 108L104.73 110.7L103.13 111.6L101.53 111.3L98.9297 111.6L96.1297 111.5L93.3297 111.6H89.3297L88.5297 112.3V118.4L88.4297 120.2V125.6L88.0297 128.7V139.1L90.4297 139.8L92.6297 139.7H99.3297L102.23 140.1L103.43 142.3L103.53 144.2L102.63 146.7L101.23 147.1L99.8297 147H88.6297L88.1297 147.5L88.0297 150V165.1L89.9297 165.6L91.7297 165.7H100.83L103.73 166.6L104.03 169.6V171.9L103.23 172.5L101.23 172.3H99.5297L96.8297 172.6L94.8297 172.7L93.2297 172.5L91.8297 172.7L89.6297 172.6H87.0297L85.7297 172.7L83.7297 172.5L81.9297 172.6L80.1297 172.8L76.9297 172.7ZM128.041 171.6L127.441 168.6V122.6L127.541 119.7L127.741 118.3L127.541 116.6L127.741 112.9L127.841 110.8V108.6L127.941 105.3L129.941 103.8L137.441 103.6L141.541 103.2H146.741L150.541 103.4L154.441 103.7L158.541 104.4L162.341 105.2L164.141 105.8L165.941 106.5L167.741 107.3L169.341 108.3L172.341 110.7L173.641 112.1L174.641 113.7L175.541 115.4L176.241 117.2L177.041 120.8L177.241 122.7L177.341 126.8L177.041 128.9L176.541 131L174.741 134.8L173.741 136.6L172.441 138.3L171.141 139.8L169.541 141.2L166.241 143.5L164.541 144.3L162.641 144.9L159.541 145.8L158.341 146.4L159.641 148L160.841 149.4L163.441 152.2L175.641 165.2L178.741 168.3L180.141 170.8L177.841 171.8L175.941 171.9H173.941L171.241 171.2L169.141 169.2L165.041 164.9L163.741 163.4L162.341 162L159.641 158.9L155.341 154.3L153.841 152.8L151.641 150.5L150.541 149.4L150.041 151V152.8L149.941 154.6V168.1L149.641 171.1L148.441 171.8H141.741L139.741 172L136.741 172.2L132.241 172.3L129.941 172.4L128.041 171.6ZM154.841 140.1L158.841 139.5L160.941 138.9L162.941 138L164.741 136.9L166.841 135.4L168.241 133.4L169.241 131.6L170.041 129.6L170.541 127.6L170.841 124.3V122.2L170.041 119.4L169.141 117.5L166.441 114.2L164.741 113L162.841 111.9L159.041 110.8L157.341 110.6H155.541L152.141 110.7L150.541 111.4L150.441 114.1V121.9L150.241 124.1L150.041 126L150.141 128.1V130.5L150.041 133.7V137.6L150.541 140.1L153.141 140.2L154.841 140.1ZM204.188 172.9L201.788 172.2L201.288 170.7V165.8L201.188 163.8V129.9L201.088 127.3L201.288 123.8L201.188 121.8L200.888 117.8L201.088 115.6L200.788 114.2V110.7L200.688 107V105.1L201.488 104.2L203.888 103.9H208.888L210.488 103.8H218.988L220.588 103.7L222.588 104.3L222.788 106.9L222.688 110.2L222.588 112.7L222.488 115.9V136L223.688 135.1L227.288 130.5L230.688 125.9L232.988 123L242.188 110.5L243.188 109L244.188 107.6L246.188 105.3L248.888 104.3H253.588L254.588 104.8L254.788 105.7L253.688 107.9L239.988 125.9L237.588 129.3L236.288 131L233.788 134.2L232.688 135.7L231.588 137.3L230.388 138.8L229.288 140.3L227.188 143.3L226.088 144.8L224.988 146.5L226.288 148L231.988 152.8L234.688 155L237.388 157.6L238.988 158.9L242.188 161.6L245.288 164.3L248.488 166.7L251.188 169.1L252.388 170.8L251.888 171.7L249.688 172L243.488 171.7L240.588 170.2L239.088 168.9L230.188 160.9L225.688 157L224.088 155.7L222.488 156.6L222.388 158.8V169.6L221.888 172.1L219.388 172.6L211.888 173H208.088L204.188 172.9ZM275.126 171.5L274.326 169.8V167.2L274.126 161.4L273.926 158.1V154.2L274.126 151.6V147.5L273.926 145.7L274.226 144.2L274.026 143.1L274.326 141.1V123.9L274.426 121.9V116.6L274.726 115.1V112.8L274.826 110.6L274.726 108.3L274.526 106L274.926 105L276.026 104.3L277.526 104.6L281.026 104.3H283.026L286.026 104.4L287.726 104.3L290.326 104.6L294.026 104.7L296.226 105.9V108.4L296.326 110.9L296.226 113.5L296.326 116.1L296.226 118.9L296.126 121.9L296.326 125L296.126 127.1L296.226 129.1L296.126 131.9L296.226 135.2L296.126 137.7L296.226 139.8L296.026 143V152.8L296.126 155.9L296.226 158.7L296.126 160.9L296.326 162.1L296.126 164L296.326 166.4L296.126 167.7L296.426 168.8L296.226 170.2L295.926 171.5L293.726 171.9H279.726L276.726 172L275.126 171.5ZM323.461 171.3L322.761 168.4V156.7L322.461 154.8L322.761 153.1V151.1L322.861 148.6L322.761 146L322.861 142.9L322.761 139.3V128.7L322.861 126.8V121L322.961 117L322.861 113L322.961 109.8L322.861 107.7L322.961 105.6L323.661 104.2H325.661L328.461 104L330.561 103.9L333.361 104L337.061 103.8H338.861L341.461 103.9H343.061L344.161 104L344.861 104.5L345.461 107.2V119.5L345.761 121.5L345.561 122.3L345.661 123.9L345.461 127.1V153.6L345.661 157.3L345.861 160.6L345.961 163L347.861 163.5H349.761L353.561 163.4H357.461L360.461 163.3L362.161 163.5L363.061 166.2L362.961 169.9L361.961 170.9H359.861L356.261 171H346.861L344.161 171.5L341.961 171.4L339.261 171.2L336.961 171.4L335.161 171.5H329.961L325.361 171.7L323.461 171.3ZM420.356 173H416.656L414.356 172.2L413.356 169.9L412.656 168.1L411.056 164.2L409.956 161.4L407.256 160.6H404.956L401.856 160.9H397.256L392.556 161H390.756L388.656 161.4L388.056 163.4L387.356 165L386.156 168.3L385.456 170L384.256 172L382.256 172.2L380.656 172.5L378.956 172.3L378.256 171.7L378.556 169.8L379.556 166.5L380.156 164.8L380.756 163L382.056 159.5L383.256 156.3L384.456 152.6L385.156 150.5L385.956 148.4L387.256 144.3L387.956 142.3L388.456 140.3L389.156 138.3L390.156 135L391.456 131.7L392.156 129.7L392.756 127.7L393.456 125.6L394.056 123.6L395.456 119.7L397.656 113.9L398.956 110.1L400.256 107.2L401.256 104.8L402.556 103.2L404.556 103.7L405.956 106.3L407.456 109.3L409.156 113.5L410.056 115.5L410.956 117.6L412.856 121.4L413.756 123.3L415.656 126.9L416.456 128.8L417.956 132.2L419.156 135.3L420.656 138.5L421.556 140.3L422.656 143.3L424.056 146.3L424.956 148.2L426.456 151.8L427.156 153.4L428.656 156.6L430.256 159.7L430.756 161.9L432.156 164.3L432.956 166.4L434.456 169.6V171.5L433.756 172.5L431.956 172.7L429.356 172.8L427.856 173.2L424.956 172.8L422.456 173.2L420.356 173ZM392.456 155L395.456 154.9L403.256 154.8L405.256 154.6L407.156 153.9L406.256 151.8L405.456 150L404.056 146.6L402.756 143.3L401.956 141.6L400.756 138.7L399.256 135.5L398.256 133.3L397.256 134.8L396.656 136.6L395.956 138.5L394.756 142.1L394.256 144L391.856 151.2L391.356 153.1L391.056 155H392.456ZM467.805 172.4L465.205 172L463.305 171.6L461.405 170.8L459.705 169.8L457.005 167.8L454.505 165.4L453.305 163.8L452.205 162.1L451.405 160.3L450.005 156.6L449.705 154.8L449.205 150.9L449.005 148.8L448.805 144.7V138.7L448.905 135L449.005 131.5L448.905 128.2L449.205 124.6V122.6L449.305 120.6V110.6L449.405 107.2L450.305 104.8L453.305 104.1H467.205L470.105 104.2L471.005 105.3V126.4L470.905 130V133.2L471.005 136.3V139.7L471.405 142.6L471.505 145.6L471.605 147.6L472.305 150.9L475.105 153.4L478.405 154.3L480.105 154L481.705 152.9L482.605 151.5L483.505 148.8L483.705 144.4V140.3L483.805 136.4L483.605 132.7L483.705 128.9V117.3L483.805 114V111.6L484.005 109.3V106.7L484.205 105L484.605 104.4L486.505 104.1L488.105 104L490.505 104.8L490.805 106.3V132.4L490.705 136.1L490.605 138.9V140.6L490.705 143.2L490.305 145.7L490.205 148.5L490.005 150.5L489.705 152.4L489.305 154.4L488.805 156.3L487.605 159.9L487.005 161.6L486.105 163.2L483.805 166.3L482.405 167.8L480.905 169.1L477.205 171.3L475.205 171.9L471.905 172.4L469.605 172.7L467.805 172.4Z" fill="white"/>
</svg>
